<?xml version="1.0" encoding="UTF-8"?>
<svg id="Layer_1" xmlns="http://www.w3.org/2000/svg" version="1.1" viewBox="0 0 25 25">
  <!-- Generator: Adobe Illustrator 29.6.1, SVG Export Plug-In . SVG Version: 2.1.1 Build 9)  -->
  <defs>
    <style>
      .st0 {
        fill: #fff;
      }

      .st1 {
        fill: #ff76a3;
      }
    </style>
  </defs>
  <path class="st1" d="M21.3,3.7C19,1.3,15.8,0,12.5,0S6,1.3,3.7,3.7C1.3,6,0,9.2,0,12.5s1.3,6.5,3.7,8.8c2.3,2.3,5.5,3.7,8.8,3.7s6.5-1.3,8.8-3.7,3.7-5.5,3.7-8.8-1.3-6.5-3.7-8.8Z"/>
  <path class="st0" d="M12.5,6.1h3.2c2.1,0,3.1,1.1,3.2,3.2v6.4c0,2.1-1.1,3.1-3.2,3.2h-6.4c-2.1,0-3.1-1.1-3.2-3.2v-6.4c0-2.1,1.1-3.1,3.2-3.2.8,0,1.1,0,3.2,0ZM12.5,4.7h-3.2c-2.8,0-4.4,1.7-4.6,4.6v6.4c0,2.8,1.7,4.4,4.6,4.6h6.4c2.8-.1,4.4-1.7,4.6-4.6v-6.4c-.1-2.8-1.7-4.4-4.6-4.6-.8,0-1.1,0-3.2,0ZM12.5,8.5c-2.2,0-4,1.8-4,4s1.8,4,4,4,4-1.8,4-4-1.8-4-4-4ZM12.5,15.1c-1.4,0-2.6-1.2-2.6-2.6s1.2-2.6,2.6-2.6,2.6,1.2,2.6,2.6-1.2,2.6-2.6,2.6ZM16.7,7.4c-.5,0-.9.4-.9.9s.4.9.9.9.9-.4.9-.9-.4-.9-.9-.9Z"/>
</svg>