<?xml version="1.0" encoding="UTF-8"?>
<svg id="Layer_1" xmlns="http://www.w3.org/2000/svg" version="1.1" viewBox="0 0 25 25">
  <!-- Generator: Adobe Illustrator 29.6.1, SVG Export Plug-In . SVG Version: 2.1.1 Build 9)  -->
  <defs>
    <style>
      .st0 {
        fill: #ff76a3;
      }
    </style>
  </defs>
  <g id="Canvas">
    <g id="noun_555068_cc">
      <g id="Vector">
        <path id="path0_fill" class="st0" d="M12.5,25C5.6,25,0,19.4,0,12.5S5.6,0,12.5,0s12.5,5.6,12.5,12.5-5.6,12.5-12.5,12.5ZM15.1,14.1c-.7.5-1.2,1.2-1.6,2-2.1-.9-3.7-2.6-4.7-4.6.8-.4,1.5-.9,2.1-1.6-.1-1.5-.9-2.8-2.1-3.6-1.5.6-2.6,2-2.6,3.6.1,4.8,3.9,8.6,8.6,8.9,1.8,0,3.3-1.1,3.9-2.6-.8-1.2-2.1-2-3.6-2.1h0Z"/>
      </g>
    </g>
  </g>
</svg>