<?xml version="1.0" encoding="UTF-8"?>
<svg id="Layer_1" xmlns="http://www.w3.org/2000/svg" version="1.1" viewBox="0 0 25 25">
  <!-- Generator: Adobe Illustrator 29.6.1, SVG Export Plug-In . SVG Version: 2.1.1 Build 9)  -->
  <defs>
    <style>
      .st0 {
        fill: #ff76a3;
        fill-rule: evenodd;
      }
    </style>
  </defs>
  <g id="Canvas">
    <g id="noun_376853_cc">
      <g id="Group">
        <g id="Vector">
          <path id="path0_fill" class="st0" d="M12.5,0C9.2,0,6,1.3,3.7,3.7,1.3,6,0,9.2,0,12.5s1.3,6.5,3.7,8.8c2.3,2.3,5.5,3.7,8.8,3.7s6.5-1.3,8.8-3.7,3.7-5.5,3.7-8.8-1.3-6.5-3.7-8.8C19,1.3,15.8,0,12.5,0h0ZM12.5,4.5c4.4,0,8,3.6,8,8s-3.6,8-8,8-8-3.6-8-8,3.6-8,8-8ZM12.5,5.5c-.2,0-.5.1-.8.4-.3.3-.6.8-.8,1.4-.2.6-.4,1.3-.6,2.1h4.3c-.1-.8-.3-1.5-.6-2.1-.2-.6-.5-1.1-.8-1.4-.3-.3-.5-.4-.8-.4ZM10.6,5.8c-2,.6-3.6,1.9-4.4,3.7h3.1c.2-.9.4-1.8.7-2.5.2-.5.4-.9.6-1.2ZM14.4,5.8c.2.4.5.8.6,1.2.3.7.5,1.6.7,2.5h3.1c-.9-1.8-2.5-3.2-4.4-3.7ZM5.8,10.5c-.2.6-.3,1.3-.3,2s.1,1.4.3,2h3.4c0-.6-.1-1.3-.1-2s0-1.4.1-2h-3.4ZM10.2,10.5c0,.6-.1,1.3-.1,2s0,1.4.1,2h4.6c0-.6.1-1.3.1-2s0-1.4-.1-2h-4.6ZM15.8,10.5c0,.6.1,1.3.1,2s0,1.4-.1,2h3.4c.2-.6.3-1.3.3-2s-.1-1.4-.3-2h-3.4ZM6.2,15.5c.9,1.8,2.5,3.2,4.4,3.7-.2-.4-.5-.8-.6-1.2-.3-.7-.5-1.6-.7-2.5h-3.1ZM10.3,15.5c.1.8.3,1.5.6,2.1.2.6.5,1.1.8,1.4.3.3.5.4.8.4s.5-.1.8-.4c.3-.3.6-.8.8-1.4.2-.6.4-1.3.6-2.1h-4.3ZM15.7,15.5c-.2.9-.4,1.8-.7,2.5-.2.5-.4.9-.6,1.2,2-.6,3.6-1.9,4.4-3.7h-3.1Z"/>
        </g>
      </g>
    </g>
  </g>
</svg>