<?xml version="1.0" encoding="UTF-8"?>
<svg id="Layer_1" xmlns="http://www.w3.org/2000/svg" version="1.1" viewBox="0 0 25 25">
  <!-- Generator: Adobe Illustrator 29.6.1, SVG Export Plug-In . SVG Version: 2.1.1 Build 9)  -->
  <defs>
    <style>
      .st0 {
        fill: #ff76a3;
      }
    </style>
  </defs>
  <g id="Canvas">
    <g id="noun_376938_cc">
      <g id="Group">
        <g id="Group1" data-name="Group">
          <g id="Group2" data-name="Group">
            <g id="Vector">
              <path id="path0_fill" class="st0" d="M12.5,0C9.2,0,6,1.3,3.7,3.7,1.3,6,0,9.2,0,12.5s1.3,6.5,3.7,8.8c2.3,2.3,5.5,3.7,8.8,3.7s6.5-1.3,8.8-3.7,3.7-5.5,3.7-8.8-1.3-6.5-3.7-8.8C19,1.3,15.8,0,12.5,0h0ZM12.5,6c2.8,0,5,2.2,5,5s-3.6,7.4-4.6,8.4l-.4.4-.4-.4c-1-1-4.6-4.5-4.6-8.4s2.2-5,5-5ZM12.5,7c-2.2,0-4,1.8-4,4s2.8,6,4,7.2c1.2-1.2,4-4.3,4-7.2s-1.8-4-4-4ZM12.5,9c1.1,0,2,.9,2,2s-.9,2-2,2-2-.9-2-2,.9-2,2-2ZM12.5,10c-.6,0-1,.4-1,1s.4,1,1,1,1-.4,1-1-.4-1-1-1Z"/>
            </g>
          </g>
        </g>
      </g>
    </g>
  </g>
</svg>