<?xml version="1.0" encoding="UTF-8"?>
<svg id="Layer_1" xmlns="http://www.w3.org/2000/svg" version="1.1" viewBox="0 0 25 25">
  <!-- Generator: Adobe Illustrator 29.6.1, SVG Export Plug-In . SVG Version: 2.1.1 Build 9)  -->
  <defs>
    <style>
      .st0 {
        fill: #ff76a3;
      }
    </style>
  </defs>
  <g id="Canvas">
    <g id="noun_99709_cc">
      <g id="Vector">
        <path id="path0_fill" class="st0" d="M12.5,0C19.4,0,25,5.6,25,12.5s-5.6,12.5-12.5,12.5S0,19.4,0,12.5,5.6,0,12.5,0ZM20,16.6v-8s-4.8,3.3-4.8,3.3l4.8,4.7ZM14.4,12.3l-1.7,1.1c0,0-.2,0-.2,0s-.2,0-.2,0l-1.7-1.2-4.9,4.9h13.9l-5-4.9ZM9.8,11.8l-4.8-3.2v8l4.8-4.8ZM12.5,12.6l6.9-4.7H5.6l6.9,4.7Z"/>
      </g>
    </g>
  </g>
</svg>